<?xml version="1.0" standalone="no"?>
<!DOCTYPE svg PUBLIC "-//W3C//DTD SVG 20010904//EN"
 "http://www.w3.org/TR/2001/REC-SVG-20010904/DTD/svg10.dtd">
<svg version="1.0" xmlns="http://www.w3.org/2000/svg"
 width="64.000000pt" height="64.000000pt" viewBox="0 0 64.000000 64.000000"
 preserveAspectRatio="xMidYMid meet">

<g transform="translate(0.000000,64.000000) scale(0.100000,-0.100000)"
fill="#000000" stroke="none">
<path d="M10 604 c-14 -35 -13 -513 1 -552 7 -20 21 -34 41 -41 33 -12 414
-16 442 -5 47 18 -4 24 -200 24 -129 0 -223 4 -235 10 -18 10 -19 24 -19 285
0 168 4 275 10 275 5 0 12 -15 15 -32 59 -307 91 -442 110 -454 41 -27 60 2
96 151 40 163 52 169 85 48 28 -101 28 -103 65 -103 35 0 39 8 74 147 28 114
30 136 13 131 -6 -2 -26 -58 -42 -124 -39 -150 -54 -159 -80 -47 -24 102 -30
113 -66 113 -37 0 -41 -7 -75 -150 -31 -128 -42 -157 -56 -143 -5 5 -30 112
-55 238 -25 127 -51 236 -56 243 -19 22 -58 14 -68 -14z"/>
<path d="M580 21 c0 -12 29 -23 41 -15 18 10 9 24 -16 24 -14 0 -25 -4 -25 -9z"/>
</g>
</svg>
